<svg xmlns="http://www.w3.org/2000/svg" viewBox="0 0 1600 1000" role="img" aria-labelledby="title desc">
  <title id="title">Waterfront property placeholder</title>
  <desc id="desc">Abstract placeholder artwork for the home page hero.</desc>
  <defs>
    <linearGradient id="sky" x1="0" y1="0" x2="0" y2="1">
      <stop offset="0%" stop-color="#9fd9ff"/>
      <stop offset="55%" stop-color="#d7ecf8"/>
      <stop offset="100%" stop-color="#f5e7d7"/>
    </linearGradient>
  </defs>
  <rect width="1600" height="1000" fill="url(#sky)"/>
  <rect y="620" width="1600" height="380" fill="#314d66"/>
  <rect y="690" width="1600" height="310" fill="#20384f"/>
  <rect x="920" y="360" width="360" height="260" rx="8" fill="#f5f0e8"/>
  <rect x="950" y="420" width="120" height="90" fill="#6f9abb"/>
  <rect x="1110" y="420" width="130" height="90" fill="#6f9abb"/>
  <rect x="1080" y="515" width="75" height="105" fill="#82684b"/>
  <polygon points="900,360 1100,250 1310,360" fill="#556a5b"/>
  <rect x="270" y="420" width="420" height="200" rx="8" fill="#f8f4ee"/>
  <rect x="315" y="470" width="110" height="82" fill="#88b1cd"/>
  <rect x="455" y="470" width="105" height="82" fill="#88b1cd"/>
  <rect x="580" y="500" width="70" height="120" fill="#8a7256"/>
  <polygon points="250,420 480,290 715,420" fill="#445c4c"/>
  <rect x="690" y="745" width="210" height="28" rx="14" fill="#d7e9f4" opacity="0.85"/>
</svg>
